<svg xmlns="http://www.w3.org/2000/svg" version="1.1" xmlns:xlink="http://www.w3.org/1999/xlink" xmlns:svgjs="http://svgjs.dev/svgjs" width="1000" height="1125" viewBox="0 0 1000 1125"><g transform="matrix(1,0,0,1,0,0)"><svg viewBox="0 0 320 360" data-background-color="#282634" preserveAspectRatio="xMidYMid meet" height="1125" width="1000" xmlns="http://www.w3.org/2000/svg" xmlns:xlink="http://www.w3.org/1999/xlink"><g id="tight-bounds" transform="matrix(1,0,0,1,0,0)"><svg viewBox="0 0 320 360" height="360" width="320"><g><svg></svg></g><g><svg viewBox="0 0 320 360" height="360" width="320"><g><path xmlns="http://www.w3.org/2000/svg" d="M320 141.95l-19.957-19.957v-28.224l-53.812-53.812h-28.223l-19.958-19.957h-76.1l-19.957 19.957h-28.224l-53.812 53.812v28.224l-19.957 19.957v76.104l19.957 19.958v28.223l53.816 53.808h28.224l19.957 19.957h76.104l19.958-19.957h28.223l53.812-53.812v-28.224l19.949-19.957zM244.374 44.437l51.189 51.189v21.887l-73.076-73.076zM295.563 123.849v112.306l-79.408 79.408h-112.306l-79.412-79.412v-112.302l79.412-79.412h112.306zM123.807 24.48h72.39l15.478 15.477h-103.346zM24.437 95.626l51.189-51.189h21.887l-73.076 73.076zM4.484 216.197v-72.394l15.477-15.478v103.342zM75.626 315.563l-51.189-51.189v-21.887l73.076 73.076zM196.197 335.52h-72.39l-15.478-15.477h103.342zM295.563 264.374l-51.189 51.189h-21.887l73.076-73.076zM315.52 216.197l-15.477 15.478v-103.346l15.477 15.478z" fill="#ff4057" fill-rule="nonzero" stroke="none" stroke-width="1" stroke-linecap="butt" stroke-linejoin="miter" stroke-miterlimit="10" stroke-dasharray="" stroke-dashoffset="0" font-family="none" font-weight="none" font-size="none" text-anchor="none" style="mix-blend-mode: normal" data-fill-palette-color="tertiary"></path></g><g transform="matrix(1,0,0,1,70,90)"><svg viewBox="0 0 180 180" height="180" width="180"><g><svg viewBox="0 0 180 180" height="180" width="180"><g><svg viewBox="0 0 180 180" height="180" width="180"><g id="textblocktransform"><svg viewBox="0 0 180 180" height="180" width="180" id="textblock"><g><svg viewBox="0 0 180 180" height="180" width="180"><g transform="matrix(1,0,0,1,34.88583632302974,26.36038969321072)"><svg viewBox="0 0 110.22832735394051 127.27922061357856" height="127.27922061357856" width="110.22832735394051"><g><svg xmlns:x="http://ns.adobe.com/Extensibility/1.0/" xmlns:i="http://ns.adobe.com/AdobeIllustrator/10.0/" xmlns:graph="http://ns.adobe.com/Graphs/1.0/" xmlns="http://www.w3.org/2000/svg" xmlns:xlink="http://www.w3.org/1999/xlink" version="1.0" x="0" y="0" viewBox="12.130000114440918 6.271999835968018 75.73999786376953 87.45599365234375" enable-background="new 0 0 100 100" xml:space="preserve" height="127.27922061357856" width="110.22832735394051" class="icon-o-0" data-fill-palette-color="accent" id="o-0"><g fill="#dcdcdc" data-fill-palette-color="accent"><path d="M50 6.272L12.13 28.137v43.728L50 93.728l37.87-21.863V28.137L50 6.272zM78.438 32.691L51 16.85V9.159L84.898 28.73 78.438 32.691zM50 59.352l-7.21-4.162v-8.326L50 42.701l7.209 4.162v8.326L50 59.352zM49 40.968l-6.67 3.851-7.902-4.675L49 31.731V40.968zM40.79 46.232v8.625l-8 4.451v-17.81L40.79 46.232zM41.498 56.753L49 61.083v9.238l-15.65-9.035L41.498 56.753zM51 61.083l7.502-4.331 8.148 4.534L51 70.321V61.083zM59.209 54.855v-8.73l0.314 0.513 7.687-4.714v17.383L59.209 54.855zM58.479 44.934l0.335 0.547L51 40.969v-9.237l14.94 8.625L58.479 44.934zM49 29.422l-16.547 9.553-8.779-5.194L49 19.159V29.422zM30.79 40.315v20.107l-8 4.451V35.582L30.79 40.315zM31.313 62.42L49 72.63v8.212L24.071 66.449 31.313 62.42zM51 72.63l17.687-10.211 7.243 4.03L51 80.842V72.63zM69.21 60.421V40.698l8-4.907v29.081L69.21 60.421zM67.879 39.168L51 29.423V19.159l25.5 14.722L67.879 39.168zM49 16.849L21.699 32.612l-6.579-3.893L49 9.159V16.849zM20.79 34.398v31.588l-6.66 3.705V30.458L20.79 34.398zM22.034 67.583L49 83.15v7.691L15.251 71.357 22.034 67.583zM51 83.15l26.966-15.568 6.783 3.775L51 90.842V83.15zM79.21 65.985V34.564l6.66-4.085v39.212L79.21 65.985z" fill="#dcdcdc" data-fill-palette-color="accent"></path></g></svg></g></svg></g><path d="M8.52 125.015l-0.556-1.712 5.802-4.892c0.261-0.211 0.61-0.475 1.047-0.793 0.435-0.323 0.916-0.676 1.443-1.057 0.53-0.375 1.06-0.74 1.59-1.095 0.536-0.356 1.025-0.687 1.465-0.992 0.447-0.307 0.803-0.548 1.068-0.725 0.265-0.177 0.397-0.266 0.397-0.266v0l0.928-1.742 1.371-0.277 0.556 1.712-5.687 4.824c-0.286 0.24-0.655 0.528-1.107 0.864-0.445 0.334-0.931 0.684-1.457 1.051-0.517 0.371-1.031 0.731-1.542 1.08-0.513 0.342-0.984 0.66-1.414 0.954-0.424 0.292-0.768 0.526-1.033 0.703-0.259 0.175-0.388 0.263-0.388 0.263v0l-1.096 1.87zM5.783 116.589v0l16.709-5.43c0.292-0.095 0.486 0.007 0.583 0.305v0l0.143 1.93-3.395 0.746c-0.243 0.135-0.558 0.279-0.943 0.432-0.379 0.151-0.792 0.313-1.24 0.487-0.455 0.176-0.914 0.346-1.379 0.512-0.469 0.174-0.925 0.336-1.367 0.486-0.435 0.148-0.832 0.288-1.189 0.418-0.353 0.122-0.637 0.218-0.853 0.287v0l-5.906 1.919c-0.146 0.047-0.258 0.049-0.335 0.004-0.08-0.051-0.174-0.224-0.284-0.517-0.118-0.298-0.299-0.824-0.544-1.579zM8.52 125.015v0l-0.149-1.949 3.843-0.923c0.262-0.141 0.583-0.288 0.961-0.439 0.372-0.149 0.775-0.301 1.209-0.455 0.425-0.159 0.854-0.316 1.287-0.471 0.438-0.163 0.858-0.314 1.262-0.452 0.408-0.147 0.782-0.279 1.122-0.397 0.34-0.118 0.625-0.213 0.853-0.287v0l5.735-1.864c0.146-0.047 0.258-0.049 0.335-0.003 0.08 0.051 0.177 0.233 0.293 0.546 0.122 0.311 0.299 0.824 0.533 1.541v0l-16.71 5.429c-0.292 0.095-0.483 0.003-0.574-0.276zM21.413 147.376v0l13.278-10.566c0.282-0.224 0.503-0.353 0.664-0.387 0.156-0.039 0.349 0.063 0.577 0.307 0.233 0.249 0.594 0.682 1.083 1.298v0l-13.748 10.939c-0.12 0.095-0.224 0.136-0.313 0.121-0.093-0.02-0.248-0.156-0.466-0.409-0.223-0.248-0.582-0.683-1.075-1.303zM48.238 169.976v0c-0.234-0.142-0.464-0.289-0.691-0.441-0.223-0.159-0.455-0.323-0.696-0.492v0c0.377-0.855 0.715-1.663 1.014-2.426 0.304-0.759 0.549-1.479 0.736-2.161 0.189-0.673 0.31-1.309 0.361-1.909 0.055-0.606 0.031-1.17-0.073-1.693v0c-0.063-0.295-0.166-0.568-0.311-0.819-0.153-0.249-0.331-0.458-0.532-0.627v0l0.212-0.351 8.021-5.173c0.28 0.091 0.538 0.193 0.773 0.305 0.236 0.112 0.443 0.221 0.62 0.329v0c0.73 0.442 0.894 0.795 0.493 1.058v0l-6.884 4.166c0.432 1.205 0.48 2.676 0.144 4.413-0.338 1.728-1.033 3.681-2.086 5.857v0c-0.085 0.167-0.202 0.256-0.349 0.268-0.148 0.012-0.398-0.089-0.752-0.303zM41.832 166.038v0l9.103-15.028c0.079-0.131 0.169-0.202 0.268-0.212 0.094-0.013 0.284 0.059 0.57 0.217 0.29 0.152 0.774 0.434 1.453 0.845v0l-9.103 15.028c-0.079 0.131-0.16 0.207-0.242 0.227-0.082 0.02-0.27-0.05-0.562-0.212-0.301-0.159-0.797-0.448-1.487-0.865zM78.628 179.73v0l2.833-17.34c0.025-0.151 0.075-0.251 0.15-0.299 0.075-0.048 0.272-0.053 0.591-0.015 0.319 0.032 0.867 0.111 1.643 0.238v0l-2.833 17.339c-0.025 0.151-0.065 0.253-0.121 0.305-0.062 0.051-0.259 0.056-0.59 0.015-0.339-0.035-0.896-0.116-1.673-0.243zM72.805 178.779v0l2.834-17.34c0.025-0.151 0.072-0.252 0.14-0.301 0.069-0.05 0.266-0.055 0.59-0.015 0.326 0.033 0.877 0.113 1.653 0.239v0l-2.833 17.34c-0.025 0.151-0.072 0.252-0.141 0.301-0.069 0.05-0.266 0.055-0.59 0.015-0.319-0.032-0.87-0.112-1.653-0.239zM81.073 171.466l-5.774-0.943 0.358-2.191 5.744 0.938zM106.282 178.978v0l-3.207-16.664c-0.068-0.353-0.08-0.609-0.036-0.767 0.038-0.157 0.218-0.28 0.54-0.369 0.329-0.09 0.879-0.21 1.652-0.358v0l3.321 17.253c0.029 0.151 0.016 0.262-0.038 0.333-0.061 0.073-0.253 0.147-0.578 0.223-0.324 0.083-0.875 0.199-1.654 0.349zM137.503 166.483l-5.242 3.08-8.809-14.993c-0.111-0.19-0.158-0.34-0.138-0.453 0.014-0.108 0.161-0.253 0.441-0.433 0.283-0.189 0.755-0.478 1.416-0.867v0l8.009 13.631 3.578-2.102 0.891 1.518c0.095 0.161 0.125 0.286 0.093 0.374-0.039 0.092-0.118 0.174-0.239 0.245zM168.653 120.091l-0.332 0.921-4.179-0.115c-0.162-0.002-0.456-0.023-0.881-0.062-0.421-0.031-0.917-0.072-1.487-0.122-0.564-0.048-1.146-0.095-1.746-0.141-0.596-0.038-1.15-0.082-1.664-0.133-0.509-0.042-0.917-0.079-1.224-0.112-0.309-0.027-0.464-0.04-0.464-0.04v0l-2.291-1.783 7.673 0.302c0.306-0.003 0.635 0.009 0.986 0.037 0.345 0.025 0.658 0.053 0.937 0.083 0.282 0.024 0.511 0.046 0.688 0.067 0.177 0.021 0.265 0.032 0.265 0.032v0c0 0-0.075-0.048-0.224-0.145-0.152-0.09-0.344-0.216-0.576-0.377-0.23-0.168-0.482-0.344-0.756-0.528-0.276-0.178-0.531-0.365-0.764-0.563v0l-5.794-4.302 2.589-0.192c0 0 0.128 0.089 0.383 0.265 0.257 0.171 0.592 0.401 1.004 0.692 0.409 0.282 0.856 0.592 1.344 0.932 0.487 0.339 0.955 0.674 1.402 1.005 0.45 0.325 0.851 0.608 1.203 0.849 0.35 0.247 0.593 0.43 0.727 0.549v0l3.082 2.536c0.118 0.085 0.151 0.2 0.099 0.345zM170.602 126.683v0l-16.527-5.963c-0.207-0.075-0.315-0.167-0.326-0.277-0.006-0.101 0.011-0.208 0.052-0.321v0l0.584-1.618 3.656 1.181 0.486 0.834c0 0 0.108 0.025 0.324 0.075 0.21 0.047 0.504 0.115 0.884 0.202 0.377 0.094 0.811 0.208 1.301 0.342 0.492 0.128 1.006 0.267 1.54 0.417 0.543 0.146 1.095 0.303 1.658 0.471 0.557 0.165 1.086 0.339 1.588 0.519v0l5.134 1.799c0.144 0.052 0.232 0.123 0.264 0.213 0.029 0.096-0.005 0.299-0.104 0.611-0.092 0.314-0.264 0.819-0.514 1.515zM173.34 119.092v0l-5.44-2.069c-0.495-0.2-1.013-0.415-1.553-0.646-0.534-0.228-1.064-0.458-1.59-0.69-0.53-0.241-1.032-0.468-1.508-0.682-0.48-0.223-0.899-0.416-1.258-0.582-0.359-0.165-0.643-0.299-0.853-0.403-0.21-0.104-0.316-0.156-0.316-0.157v0l-0.729 0.428-3.273-1.181c-0.126-0.102-0.215-0.191-0.265-0.265-0.059-0.071-0.062-0.182-0.008-0.333v0c0.215-0.596 0.368-1.019 0.458-1.27 0.09-0.251 0.146-0.404 0.166-0.46 0.02-0.056 0.031-0.085 0.031-0.085v0l16.527 5.962c0.144 0.052 0.232 0.123 0.263 0.213 0.034 0.083 0 0.284-0.1 0.601-0.094 0.32-0.278 0.86-0.552 1.619z" fill="#ff4057" data-fill-palette-color="primary"></path><path d="M20.755 64.142L20.199 65.854 12.639 66.405C12.31 66.424 11.876 66.434 11.336 66.434 10.788 66.438 10.191 66.441 9.546 66.441 8.897 66.434 8.254 66.417 7.617 66.393 6.973 66.366 6.384 66.346 5.848 66.334 5.313 66.321 4.886 66.308 4.567 66.296 4.243 66.282 4.08 66.274 4.08 66.274V66.274L2.319 67.132 1.047 66.55 1.603 64.839 9.027 64.285C9.4 64.259 9.864 64.242 10.421 64.234 10.984 64.227 11.583 64.229 12.217 64.239 12.86 64.245 13.486 64.259 14.096 64.281 14.714 64.3 15.283 64.317 15.804 64.332 16.318 64.345 16.732 64.356 17.044 64.366 17.354 64.383 17.509 64.391 17.509 64.391V64.391L19.494 63.522ZM18.02 72.559V72.559L1.339 67.14C1.047 67.045 0.95 66.848 1.047 66.55V66.55L2.062 64.914 5.241 66.294C5.517 66.328 5.855 66.399 6.255 66.508 6.65 66.608 7.079 66.719 7.544 66.842 8.009 66.965 8.482 67.095 8.964 67.23 9.444 67.372 9.903 67.511 10.343 67.646 10.784 67.776 11.187 67.896 11.55 68.007 11.914 68.118 12.2 68.208 12.409 68.276V68.276L18.306 70.191C18.452 70.239 18.543 70.303 18.579 70.385 18.616 70.467 18.591 70.662 18.505 70.971 18.427 71.275 18.265 71.804 18.02 72.559ZM20.755 64.142V64.142L19.73 65.807 16.076 64.304C15.789 64.26 15.448 64.188 15.053 64.088 14.664 63.989 14.251 63.88 13.814 63.759 13.372 63.629 12.929 63.503 12.486 63.38 12.044 63.25 11.615 63.125 11.199 63.004 10.791 62.878 10.415 62.763 10.071 62.658 9.726 62.553 9.44 62.464 9.212 62.39V62.39L3.486 60.53C3.34 60.482 3.249 60.418 3.213 60.336 3.176 60.254 3.203 60.052 3.294 59.731 3.378 59.408 3.537 58.885 3.772 58.162V58.162L20.453 63.581C20.745 63.676 20.845 63.863 20.755 64.142ZM31.48 45.81V45.81L18.215 35.258C17.934 35.033 17.761 34.849 17.697 34.705 17.624 34.561 17.68 34.351 17.867 34.073 18.054 33.796 18.392 33.349 18.882 32.734V32.734L32.608 43.653C32.728 43.749 32.79 43.841 32.796 43.931 32.801 44.02 32.705 44.199 32.508 44.469 32.317 44.742 31.974 45.189 31.48 45.81ZM54.952 26.289V26.289C54.718 26.431 54.481 26.567 54.24 26.697 53.996 26.821 53.743 26.951 53.482 27.086V27.086C52.903 26.361 52.344 25.69 51.807 25.073 51.275 24.452 50.75 23.901 50.232 23.419 49.724 22.94 49.216 22.539 48.708 22.215 48.2 21.891 47.69 21.654 47.178 21.504V21.504C46.89 21.414 46.6 21.379 46.309 21.4 46.014 21.415 45.749 21.474 45.515 21.576V21.576L45.303 21.226 44.421 11.741C44.638 11.532 44.85 11.348 45.059 11.191 45.261 11.037 45.451 10.906 45.628 10.799V10.799C46.364 10.354 46.755 10.37 46.803 10.847V10.847L47.301 18.87C48.569 19.045 49.89 19.683 51.266 20.782 52.647 21.879 54.053 23.396 55.485 25.335V25.335C55.598 25.484 55.627 25.627 55.569 25.764 55.511 25.9 55.305 26.075 54.952 26.289ZM48.503 30.137V30.137L39.416 15.135C39.336 15.004 39.315 14.892 39.353 14.799 39.384 14.71 39.536 14.575 39.809 14.394 40.078 14.208 40.549 13.911 41.222 13.503V13.503L50.308 28.505C50.388 28.637 50.417 28.743 50.397 28.826 50.377 28.908 50.228 29.041 49.95 29.226 49.675 29.415 49.193 29.719 48.503 30.137ZM80.697 18.141V18.141L77.868 0.831C77.843 0.68 77.859 0.569 77.915 0.499 77.971 0.429 78.156 0.362 78.47 0.297 78.776 0.227 79.32 0.128 80.103 0V0L82.932 17.31C82.956 17.461 82.947 17.571 82.904 17.639 82.861 17.707 82.676 17.774 82.35 17.841 82.024 17.914 81.473 18.015 80.697 18.141ZM74.884 19.091V19.091L72.055 1.781C72.03 1.63 72.043 1.52 72.092 1.451 72.142 1.382 72.327 1.315 72.647 1.249 72.966 1.176 73.514 1.077 74.29 0.95V0.95L77.119 18.26C77.144 18.411 77.131 18.521 77.082 18.59 77.032 18.659 76.847 18.727 76.527 18.792 76.208 18.865 75.66 18.964 74.884 19.091ZM80.385 9.539L74.622 10.481 74.265 8.3 79.999 7.363ZM103.852 18.83V18.83L107.054 2.185C107.123 1.832 107.206 1.593 107.304 1.47 107.397 1.338 107.61 1.291 107.943 1.328 108.275 1.364 108.827 1.457 109.6 1.606V1.606L106.286 18.829C106.257 18.98 106.204 19.078 106.127 19.125 106.05 19.171 105.847 19.169 105.517 19.119 105.186 19.076 104.631 18.979 103.852 18.83ZM130.984 29.783L125.751 26.707 134.545 11.74C134.657 11.551 134.766 11.437 134.873 11.4 134.975 11.359 135.172 11.417 135.467 11.574 135.764 11.726 136.246 11.998 136.913 12.389V12.389L128.914 26.003 132.483 28.1 131.596 29.609C131.502 29.77 131.405 29.856 131.305 29.867 131.212 29.882 131.105 29.854 130.984 29.783ZM164.201 66.698L163.868 65.777 167.149 63.201C167.277 63.105 167.517 62.934 167.867 62.687 168.217 62.44 168.625 62.155 169.089 61.831 169.554 61.508 170.032 61.173 170.523 60.825 171.008 60.48 171.46 60.161 171.879 59.869 172.306 59.58 172.647 59.347 172.903 59.17 173.16 58.999 173.288 58.914 173.288 58.914V58.914L176.181 58.828 170.097 63.477C169.858 63.677 169.597 63.877 169.315 64.078 169.033 64.279 168.775 64.457 168.54 64.613 168.302 64.777 168.111 64.906 167.968 65 167.818 65.096 167.743 65.144 167.743 65.144V65.144C167.743 65.144 167.832 65.134 168.008 65.113 168.176 65.087 168.405 65.062 168.693 65.036 168.977 65.018 169.279 64.991 169.599 64.954 169.927 64.92 170.246 64.901 170.556 64.896V64.896L177.746 64.524 175.873 66.316C175.873 66.316 175.719 66.332 175.412 66.365 175.103 66.392 174.701 66.427 174.206 66.47 173.71 66.508 173.166 66.552 172.574 66.602 171.983 66.652 171.41 66.696 170.857 66.732 170.303 66.769 169.816 66.803 169.395 66.834 168.967 66.868 168.661 66.883 168.475 66.879V66.879L164.493 66.891C164.35 66.907 164.253 66.843 164.201 66.698ZM158.505 62.874V62.874L175.005 56.924C175.212 56.849 175.353 56.848 175.429 56.92 175.5 57 175.556 57.097 175.597 57.21V57.21L176.181 58.828 172.622 60.249 171.706 59.92C171.706 59.92 171.61 59.969 171.419 60.067 171.227 60.164 170.956 60.297 170.606 60.466 170.258 60.641 169.853 60.833 169.39 61.043 168.933 61.25 168.449 61.471 167.938 61.704 167.425 61.932 166.901 62.16 166.367 62.388 165.835 62.622 165.318 62.83 164.816 63.011V63.011L159.725 64.9C159.581 64.952 159.467 64.951 159.384 64.896 159.302 64.847 159.2 64.671 159.077 64.369 158.947 64.068 158.757 63.57 158.506 62.874ZM161.236 70.446V70.446L166.736 68.569C167.244 68.407 167.777 68.243 168.334 68.078 168.897 67.91 169.456 67.751 170.011 67.601 170.564 67.444 171.093 67.299 171.598 67.167 172.107 67.026 172.552 66.904 172.933 66.802 173.315 66.7 173.62 66.622 173.848 66.568 174.077 66.514 174.191 66.487 174.191 66.487V66.487L174.482 65.701 177.746 64.524C177.906 64.516 178.03 64.525 178.117 64.55 178.21 64.573 178.283 64.657 178.335 64.801V64.801C178.55 65.397 178.702 65.82 178.793 66.071 178.883 66.322 178.939 66.475 178.959 66.532 178.979 66.588 178.99 66.616 178.99 66.616V66.616L162.49 72.567C162.346 72.619 162.234 72.624 162.155 72.581 162.074 72.533 161.97 72.354 161.845 72.045 161.713 71.738 161.51 71.205 161.236 70.446Z" fill="#ff4057" data-fill-palette-color="primary"></path><path d="M2.06 92.586c0-3.804 3.084-6.887 6.888-6.888 3.804 0 6.887 3.084 6.887 6.888 0 3.804-3.084 6.887-6.887 6.887-3.804 0-6.887-3.084-6.888-6.887zM164.06 92.586c0-3.804 3.084-6.887 6.888-6.888 3.804 0 6.887 3.084 6.887 6.888 0 3.804-3.084 6.887-6.887 6.887-3.804 0-6.887-3.084-6.888-6.887z" fill="#ff4057" data-fill-palette-color="primary"></path></svg></g></svg></g></svg></g></svg></g></svg></g></svg></g><defs></defs></svg><rect width="320" height="360" fill="none" stroke="none" visibility="hidden"></rect></g></svg></g></svg>